<?xml version="1.0"?>
<svg xmlns="http://www.w3.org/2000/svg" xmlns:xlink="http://www.w3.org/1999/xlink" xmlns:svgjs="http://svgjs.com/svgjs" version="1.1" width="512" height="512" x="0" y="0" viewBox="0 0 512 512" style="enable-background:new 0 0 512 512" xml:space="preserve" class=""><g><g xmlns="http://www.w3.org/2000/svg"><g><g><g><g><g><g><g><g><circle cx="256" cy="256" fill="#c378ba" r="256" data-original="#c38778" style="" class=""/></g></g></g></g></g></g></g></g><path d="m512 256c0-7.82-.351-15.558-1.037-23.199l-97.689-97.689-311.974 244.742 131.069 131.069c7.782.713 15.664 1.077 23.631 1.077 141.385 0 256-114.615 256-256z" fill="#e0aea2" data-original="#a65d4e" style="" class=""/><g><g><path d="m68.675 213.37.128-.228c5.632-10.031 9.221-21.079 10.559-32.506l.025-.213c3.534-30.187 22.553-56.347 50.179-69.019l.126-.058c10.509-4.82 19.952-11.685 27.779-20.194l.021-.023c20.617-22.412 51.444-32.425 81.296-26.406 11.36 2.291 23.064 2.291 34.424 0 29.852-6.02 60.679 3.993 81.296 26.405l.021.023c7.827 8.509 17.271 15.374 27.779 20.194l.127.058c27.626 12.672 46.644 38.832 50.179 69.019l.025.213c1.338 11.426 4.926 22.474 10.559 32.506l.128.228c14.866 26.476 14.866 58.785 0 85.261l-.128.228c-5.632 10.031-9.221 21.079-10.559 32.505l-.025.213c-3.534 30.187-22.553 56.347-50.179 69.019l-.126.058c-10.509 4.82-19.952 11.685-27.779 20.194l-.021.023c-20.617 22.412-51.444 32.425-81.296 26.406-11.36-2.291-23.064-2.291-34.424 0-29.852 6.02-60.679-3.993-81.296-26.405l-.021-.023c-7.827-8.509-17.271-15.374-27.779-20.194l-.127-.058c-27.626-12.672-46.644-38.832-50.179-69.019l-.025-.213c-1.338-11.426-4.926-22.474-10.559-32.506l-.128-.228c-14.866-26.476-14.866-58.784 0-85.26z" fill="#ffffff" data-original="#ffffff" style="" class=""/></g></g><g><g><path d="m443.325 213.37-.128-.228c-5.632-10.031-9.221-21.079-10.559-32.505l-.025-.213c-3.534-30.188-22.553-56.347-50.178-69.02l-.126-.058c-10.509-4.82-19.952-11.685-27.779-20.194l-.021-.023c-20.617-22.412-51.444-32.425-81.296-26.405-5.641 1.137-11.366 1.707-17.091 1.715v379.123c5.726.008 11.451.578 17.091 1.715 29.852 6.02 60.679-3.994 81.296-26.406l.021-.022c7.827-8.509 17.271-15.374 27.779-20.194l.126-.058c27.626-12.672 46.644-38.832 50.178-69.02l.025-.213c1.338-11.426 4.927-22.474 10.559-32.505l.128-.228c14.866-26.477 14.866-58.785 0-85.261z" fill="#f0e1ef" data-original="#e9edf5" style="" class=""/></g></g><g><path d="m312.358 192.698h-112.716c-27.169 0-49.194 22.025-49.194 49.195 0 27.169 22.025 49.194 49.194 49.194h4.814v11.659c0 28.467 23.077 51.544 51.544 51.544 28.467 0 51.544-23.077 51.544-51.544v-11.659h4.814c27.169 0 49.194-22.025 49.194-49.194 0-27.169-22.025-49.195-49.194-49.195z" fill="#e0aea2" data-original="#e0aea2" style="" class=""/></g><g><path d="m312.358 192.698h-56.238v161.59c28.411-.065 51.424-23.115 51.424-51.542v-11.659h4.814c27.169 0 49.194-22.025 49.194-49.194s-22.025-49.195-49.194-49.195z" fill="#c378ba" data-original="#c38778" style="" class=""/></g><g><g><path d="m195.647 262c-6.747 0-12.217-5.47-12.217-12.217v-17.501c0-6.747 5.47-12.217 12.217-12.217 6.747 0 12.217 5.47 12.217 12.217v17.501c0 6.747-5.469 12.217-12.217 12.217z" fill="#3a424b" data-original="#414952" style="" class=""/></g><g><path d="m316.353 262c-6.747 0-12.217-5.47-12.217-12.217v-17.501c0-6.747 5.47-12.217 12.217-12.217 6.747 0 12.217 5.47 12.217 12.217v17.501c0 6.747-5.47 12.217-12.217 12.217z" fill="#23272b" data-original="#23272b" style="" class=""/></g></g><path d="m288.672 268.336-7.938-13.892-24.821 14.181-24.822-14.181-7.938 13.892 24.847 14.196v46.999h16v-47.099z" fill="#c378ba" data-original="#c38778" style="" class=""/><path d="m288.672 268.336-7.938-13.892-24.614 14.063v61.024h7.88v-47.099z" fill="#e0aea2" data-original="#a65d4e" style="" class=""/><g><g><path d="m115.93 310.285c-14.768 0-26.663-11.972-26.739-26.739-.091-17.609 6.387-41.393 12.563-60.017 5.843-17.62 22.352-29.485 40.915-29.485v89.502c0 14.768-11.972 26.739-26.739 26.739z" fill="#e0aea2" data-original="#e0aea2" style="" class=""/></g><g><path d="m396.07 310.285c14.768 0 26.663-11.972 26.739-26.739.091-17.609-6.387-41.393-12.563-60.017-5.843-17.62-22.352-29.485-40.915-29.485v89.502c0 14.768 11.972 26.739 26.739 26.739z" fill="#c378ba" data-original="#b46e5a" style="" class=""/></g></g></g></g></svg>
